HIERARCHY
ROOT Hips
{
	OFFSET 0.00000 0.00000 0.00000
	CHANNELS 6 Xposition Yposition Zposition Zrotation Yrotation Xrotation 
	JOINT LHipJoint
	{
		OFFSET 0 0 0
		CHANNELS 3 Zrotation Yrotation Xrotation
		JOINT LeftUpLeg
		{
			OFFSET 1.77779 -1.88989 0.48267
			CHANNELS 3 Zrotation Yrotation Xrotation
			JOINT LeftLeg
			{
				OFFSET 2.53442 -6.96327 0.00000
				CHANNELS 3 Zrotation Yrotation Xrotation
				JOINT LeftFoot
				{
					OFFSET 2.71068 -7.44755 0.00000
					CHANNELS 3 Zrotation Yrotation Xrotation
					JOINT LeftToeBase
					{
						OFFSET 0.17992 -0.49431 2.22524
						CHANNELS 3 Zrotation Yrotation Xrotation
						End Site
						{
							OFFSET 0.00000 -0.00000 1.14687
						}
					}
				}
			}
		}
	}
	JOINT RHipJoint
	{
		OFFSET 0 0 0
		CHANNELS 3 Zrotation Yrotation Xrotation
		JOINT RightUpLeg
		{
			OFFSET -1.58469 -1.88989 0.48267
			CHANNELS 3 Zrotation Yrotation Xrotation
			JOINT RightLeg
			{
				OFFSET -2.60386 -7.15404 0.00000
				CHANNELS 3 Zrotation Yrotation Xrotation
				JOINT RightFoot
				{
					OFFSET -2.73334 -7.50979 0.00000
					CHANNELS 3 Zrotation Yrotation Xrotation
					JOINT RightToeBase
					{
						OFFSET -0.25618 -0.70384 2.21822
						CHANNELS 3 Zrotation Yrotation Xrotation
						End Site
						{
							OFFSET -0.00000 -0.00000 1.16381
						}
					}
				}
			}
		}
	}
	JOINT LowerBack
	{
		OFFSET 0 0 0
		CHANNELS 3 Zrotation Yrotation Xrotation
		JOINT Spine
		{
			OFFSET 0.03410 2.01612 -0.22230
			CHANNELS 3 Zrotation Yrotation Xrotation
			JOINT Spine1
			{
				OFFSET 0.03465 2.03012 0.00937
				CHANNELS 3 Zrotation Yrotation Xrotation
				JOINT Neck
				{
					OFFSET 0 0 0
					CHANNELS 3 Zrotation Yrotation Xrotation
					JOINT Neck1
					{
						OFFSET -0.00219 1.70459 0.20857
						CHANNELS 3 Zrotation Yrotation Xrotation
						JOINT Head
						{
							OFFSET 0.02518 1.72339 -0.22179
							CHANNELS 3 Zrotation Yrotation Xrotation
							End Site
							{
								OFFSET 0.00282 1.74122 -0.09823
							}
						}
					}
				}
				JOINT LeftShoulder
				{
					OFFSET 0 0 0
					CHANNELS 3 Zrotation Yrotation Xrotation
					JOINT LeftArm
					{
						OFFSET 3.36358 1.00547 -0.37661
						CHANNELS 3 Zrotation Yrotation Xrotation
						JOINT LeftForeArm
						{
							OFFSET 5.06507 -0.00000 0.00000
							CHANNELS 3 Zrotation Yrotation Xrotation
							JOINT LeftHand
							{
								OFFSET 3.60196 -0.00000 0.00000
								CHANNELS 3 Zrotation Yrotation Xrotation
								JOINT LeftFingerBase
								{
									OFFSET 0 0 0
									CHANNELS 3 Zrotation Yrotation Xrotation
									JOINT LeftHandIndex1
									{
										OFFSET 0.45035 -0.00000 0.00000
										CHANNELS 3 Zrotation Yrotation Xrotation
										End Site
										{
											OFFSET 0.36308 -0.00000 0.00000
										}
									}
								}
								JOINT LThumb
								{
									OFFSET 0 0 0
									CHANNELS 3 Zrotation Yrotation Xrotation
									End Site
									{
										OFFSET 0.36862 -0.00000 0.36862
									}
								}
							}
						}
					}
				}
				JOINT RightShoulder
				{
					OFFSET 0 0 0
					CHANNELS 3 Zrotation Yrotation Xrotation
					JOINT RightArm
					{
						OFFSET -3.50159 0.80383 -0.71526
						CHANNELS 3 Zrotation Yrotation Xrotation
						JOINT RightForeArm
						{
							OFFSET -5.36394 -0.00000 0.00000
							CHANNELS 3 Zrotation Yrotation Xrotation
							JOINT RightHand
							{
								OFFSET -3.58035 -0.00000 0.00000
								CHANNELS 3 Zrotation Yrotation Xrotation
								JOINT RightFingerBase
								{
									OFFSET 0 0 0
									CHANNELS 3 Zrotation Yrotation Xrotation
									JOINT RightHandIndex1
									{
										OFFSET -0.66375 -0.00000 0.00000
										CHANNELS 3 Zrotation Yrotation Xrotation
										End Site
										{
											OFFSET -0.53513 -0.00000 0.00000
										}
									}
								}
								JOINT RThumb
								{
									OFFSET 0 0 0
									CHANNELS 3 Zrotation Yrotation Xrotation
									End Site
									{
										OFFSET -0.54330 -0.00000 0.54330
									}
								}
							}
						}
					}
				}
			}
		}
	}
}
MOTION
Frames: 11
Frame Time: .0083333
1.1629 17.9806 -27.8255 0 0 0 0 0 0 -21 0 0 0 0 0 0 0 0 0 0 0 0 0 0 21 0 0 0 0 0 0 0 0 0 0 0 0 0 0 0 0 0 0 0 0 0 0 -16 0 0 21 0 0 11 0 0 0 -8 0 0 0 0 0 0 0 0 0 0 0 0 0 0 0 0 0 0 0 0 8 0 0 0 0 0 0 0 0 0 0 0 0 0 0 0 0 0
1.1629 17.9806 -27.8255 -2.6858 -3.6353 -2.0298 0.0000 0.0000 0.0000 -18.0941 -10.0109 -16.2644 1.6764 8.1568 23.1915 -0.1850 -8.7838 -1.4822 0.0014 0.2406 0.6611 0.0000 0.0000 0.0000 26.4111 2.2637 -0.6287 -8.8046 -16.6803 55.4120 -0.3041 -6.8989 10.2475 -1.2341 -7.0449 19.8484 1.5794 1.4368 10.2539 1.3571 2.1936 -0.5522 0.1933 1.0468 -6.3328 -1.8454 -3.3329 -14.7200 0.5853 -4.3317 21.2425 -0.0193 -2.1122 9.1565 0.0000 0.0000 0.0000 -87.5427 8.6764 15.1392 9.8919 -16.5703 -1.4440 -0.0000 0.0000 -6.0406 24.8502 17.5418 7.9464 -7.1250 0.0000 -0.0000 -3.0736 49.1613 -0.3157 0.0000 0.0000 0.0000 89.5492 6.8831 8.6941 -19.3652 29.8700 -5.2115 0.0000 -0.0000 -1.7180 -19.2067 21.3362 -7.2237 7.1250 -0.0000 -0.0000 5.9965 -7.6095 5.1789
1.1802 17.9896 -27.6513 -2.3338 -3.6072 -2.1276 0.0000 0.0000 0.0000 -18.7310 -9.7502 -15.5976 1.6793 8.1634 23.2113 -0.1719 -8.8378 -2.0355 0.0117 0.6993 1.9218 0.0000 0.0000 0.0000 25.8315 2.3273 -2.0861 -9.5023 -17.1203 57.8117 -0.3159 -7.4496 10.5548 -1.4934 -7.7197 21.8659 1.3712 1.4495 10.4077 1.2083 2.1714 -0.2255 0.1581 1.0428 -6.0760 -1.6991 -3.3085 -16.1653 0.5453 -4.3013 21.4487 -0.0817 -2.0802 9.4913 -0.0000 0.0000 0.0000 -87.3127 7.9218 16.0009 10.0394 -16.8012 -1.4863 -0.0000 0.0000 -6.5137 24.9145 17.9489 8.1461 -7.1250 0.0000 -0.0000 -3.0979 49.6100 -0.3524 -0.0000 0.0000 0.0000 89.7850 7.5272 8.0938 -18.9588 29.3675 -5.0106 0.0000 -0.0000 -1.4436 -19.1659 21.8078 -7.3573 7.1250 -0.0000 -0.0000 6.0567 -7.1282 5.2887
1.1969 18.0065 -27.4767 -1.9733 -3.6716 -2.2742 0.0000 0.0000 0.0000 -19.3692 -9.4604 -14.8125 1.6746 8.1526 23.1786 -0.1533 -8.7231 -2.4730 0.0355 1.2168 3.3456 0.0000 0.0000 0.0000 25.2590 2.4118 -3.3581 -10.1191 -17.4763 59.8856 -0.2366 -7.6632 9.5058 -1.5036 -7.7450 21.9422 1.1120 1.4952 10.6447 1.0950 2.1940 -0.0355 0.1778 1.0605 -6.0141 -1.6476 -3.2814 -17.1076 0.5309 -4.2600 21.6430 -0.1086 -2.0512 9.7329 0.0000 -0.0000 0.0000 -87.1283 7.4629 16.9632 10.2264 -17.0930 -1.5408 -0.0000 0.0000 -6.9180 25.1765 18.5288 8.4959 -7.1250 0.0000 -0.0000 -2.9677 50.2779 -0.3864 0.0000 -0.0000 0.0000 89.9217 7.6778 7.6691 -18.7265 29.0775 -4.8972 0.0000 -0.0000 -1.2374 -19.0422 21.9617 -7.3552 7.1250 -0.0000 -0.0000 6.1462 -6.9875 5.3847
1.2076 18.0187 -27.3070 -1.8229 -3.7384 -2.3981 0.0000 0.0000 0.0000 -19.7310 -9.1416 -14.0984 1.6681 8.1376 23.1328 -0.1389 -8.7268 -2.9090 0.0076 0.5615 1.5428 0.0000 0.0000 0.0000 24.9868 2.5543 -4.5587 -10.7032 -17.7867 61.8138 -0.1228 -7.9495 7.8523 -1.3763 -7.4241 20.9779 0.9696 1.4988 10.9816 1.0766 2.1881 -0.1642 0.2283 1.0590 -6.3448 -1.5996 -3.2666 -16.8144 0.4191 -4.2286 21.5201 -0.1445 -2.0483 9.6307 0.0000 -0.0000 0.0000 -86.9864 7.4954 17.4858 10.3178 -17.2352 -1.5678 -0.0000 0.0000 -6.9731 25.2210 18.5442 8.5195 -7.1250 0.0000 -0.0000 -2.9271 50.3021 -0.3828 0.0000 -0.0000 0.0000 90.0390 7.1139 7.4353 -18.5647 28.8741 -4.8188 0.0000 -0.0000 -1.2739 -18.9228 21.9079 -7.2893 7.1250 -0.0000 -0.0000 6.2175 -7.0604 5.4391
1.2178 18.0327 -27.1370 -1.6760 -3.6169 -2.4646 0.0000 0.0000 0.0000 -20.0970 -8.9230 -13.4052 1.6589 8.1161 23.0674 -0.1322 -8.8932 -3.3018 0.0290 1.0989 3.0210 0.0000 0.0000 0.0000 24.7283 2.5854 -5.8299 -11.2312 -18.0464 63.5302 -0.0263 -8.5338 6.4829 -1.1067 -6.6840 18.7825 0.8750 1.3987 11.1086 1.0167 2.0440 -0.3342 0.2364 0.9887 -6.5977 -1.4518 -3.2625 -16.0117 0.2103 -4.2213 21.2093 -0.2219 -2.0632 9.3639 0.0000 0.0000 0.0000 -86.7950 7.6965 17.9726 10.4240 -17.4001 -1.5994 -0.0000 0.0000 -7.0564 25.1341 18.0556 8.2735 -7.1250 0.0000 -0.0000 -2.9050 49.7609 -0.3412 0.0000 0.0000 0.0000 90.1400 6.5046 7.3337 -18.2501 28.4763 -4.6679 0.0000 -0.0000 -1.3569 -18.7607 22.2510 -7.3290 7.1250 -0.0000 -0.0000 6.3448 -6.7307 5.5927
1.2282 18.0483 -26.9644 -1.4676 -3.3630 -2.6702 0.0000 0.0000 0.0000 -20.5775 -8.8742 -12.4980 1.6569 8.1115 23.0533 -0.1142 -8.9025 -3.7811 0.0398 1.2869 3.5385 0.0000 0.0000 0.0000 24.3751 2.4566 -6.9840 -11.6987 -18.2604 65.0306 0.0513 -8.7607 5.1051 -0.8387 -5.8420 16.3267 0.8427 1.4635 11.0677 0.8105 2.1007 0.3391 0.0401 1.0193 -5.8554 -0.9989 -3.4318 -18.0090 0.0886 -4.5283 21.4536 -0.4198 -2.1692 9.8075 -0.0000 0.0000 0.0000 -86.2866 6.1630 19.2171 10.4569 -17.4511 -1.6093 -0.0000 0.0000 -7.1228 25.6210 17.6381 8.2679 -7.1250 0.0000 -0.0000 -2.3387 49.3893 -0.2533 -0.0000 0.0000 0.0000 90.4596 7.6335 6.2354 -17.8380 27.9493 -4.4731 0.0000 -0.0000 -0.8632 -18.4555 22.3895 -7.2445 7.1250 -0.0000 -0.0000 6.5467 -6.6327 5.7855
1.2351 18.0542 -26.8037 -1.3151 -3.1824 -2.8470 0.0000 0.0000 0.0000 -20.9550 -8.9159 -11.6563 1.6576 8.1133 23.0587 -0.0922 -8.7770 -4.1929 0.0300 1.1180 3.0735 0.0000 0.0000 0.0000 24.0829 2.4511 -8.1717 -12.1342 -18.4468 66.4136 0.0958 -8.4239 3.7456 -0.7235 -5.4351 15.1539 -0.0483 0.8044 11.1882 1.6367 1.1770 -0.4958 1.5527 0.6081 -6.8465 -2.5706 -2.7397 -13.9748 0.0848 -3.2258 20.3424 0.0834 -1.7098 8.7017 -0.0000 0.0000 0.0000 -88.0780 8.3105 17.1876 10.7423 -17.8922 -1.6959 -0.0000 0.0000 -6.1790 25.9701 18.0102 8.5644 -7.1250 0.0000 -0.0000 -2.0704 49.8502 -0.2477 -0.0000 0.0000 0.0000 89.1615 5.4156 8.1830 -17.5963 27.6371 -4.3603 0.0000 -0.0000 -0.9165 -18.2380 22.2986 -7.1267 7.1250 -0.0000 -0.0000 6.6768 -6.7576 5.8859
1.2448 18.0559 -26.6376 -1.0957 -3.1822 -2.9010 0.0000 0.0000 0.0000 -21.3962 -8.6655 -10.9790 1.6446 8.0829 22.9661 -0.0747 -8.7272 -4.5576 0.0167 0.8347 2.2942 0.0000 0.0000 0.0000 23.6728 2.6186 -9.4040 -12.5275 -18.6048 67.6512 0.1000 -7.7785 2.9183 -0.5934 -4.9318 13.7141 0.4376 1.3115 11.2409 0.8425 1.8499 0.4078 0.3382 0.9075 -5.8948 -1.0408 -3.2283 -17.8527 -0.0326 -4.2012 21.2845 -0.4054 -2.0375 9.7151 -0.0000 0.0000 0.0000 -86.3020 5.6758 19.6857 10.7301 -17.8734 -1.6922 -0.0000 0.0000 -6.2505 25.9834 18.3962 8.7440 -7.1250 0.0000 -0.0000 -2.1374 50.2711 -0.2778 -0.0000 0.0000 0.0000 90.4656 7.1526 5.8002 -17.3672 27.3393 -4.2546 0.0000 -0.0000 -0.2470 -17.9847 22.2527 -7.0084 7.1250 -0.0000 -0.0000 6.8329 -6.8408 6.0144
1.2564 18.0586 -26.4625 -0.8762 -3.3227 -2.8952 0.0000 0.0000 0.0000 -21.8203 -8.2567 -10.4740 1.6557 8.1088 23.0450 -0.0333 -8.6749 -5.4150 0.0137 0.7556 2.0765 0.0000 0.0000 0.0000 23.2530 2.9909 -10.6585 -12.8808 -18.7387 68.7548 0.0955 -7.0416 2.1545 -0.5192 -4.6180 12.8221 -0.3030 0.7901 11.2528 1.4479 1.1121 -0.5615 1.5077 0.5825 -6.9520 -2.2620 -2.5876 -14.1566 -0.0518 -3.0530 20.5404 0.0023 -1.6193 8.7921 -0.0000 -0.0000 0.0000 -87.6292 8.0659 18.3105 11.2035 -18.5995 -1.8403 -0.0000 0.0000 -6.0064 26.3169 17.2662 8.3515 -7.1250 0.0000 -0.0000 -1.5837 49.0977 -0.1601 -0.0000 -0.0000 0.0000 89.4961 4.8004 7.5270 -17.1459 27.0498 -4.1535 0.0000 0.0000 0.0144 -18.1651 22.0728 -7.0290 7.1250 -0.0000 -0.0000 6.7070 -6.9997 5.8811
1.2656 18.0775 -26.2914 -0.6824 -3.2522 -2.8845 0.0000 0.0000 0.0000 -22.1933 -8.1111 -9.9993 1.6810 8.1673 23.2233 0.0171 -8.6572 -6.3919 0.0213 0.9412 2.5869 0.0000 0.0000 0.0000 22.8038 3.7551 -12.4050 -13.1633 -18.8403 69.6320 0.0935 -6.6043 1.6213 -0.8792 -5.9776 16.7195 -0.1963 0.9237 11.3032 1.1496 1.2803 -0.2725 1.1047 0.6533 -6.6684 -1.8317 -2.7231 -15.7288 0.0042 -3.3255 21.0843 -0.1103 -1.7015 9.2644 0.0000 0.0000 0.0000 -86.9489 6.9950 19.2565 11.2461 -18.6644 -1.8539 -0.0000 0.0000 -5.7284 27.1565 13.5523 6.8544 -7.1250 0.0000 -0.0000 -0.2169 45.1377 -0.0007 0.0000 0.0000 0.0000 90.0140 5.4738 6.1147 -16.6902 26.4476 -3.9484 0.0000 0.0000 1.0581 -18.4440 21.7418 -7.0426 7.1250 -0.0000 -0.0000 6.5082 -7.3002 5.6661
